<?xml version="1.0" standalone="no"?>
<!DOCTYPE svg PUBLIC "-//W3C//DTD SVG 20010904//EN" "http://www.w3.org/TR/2001/REC-SVG-20010904/DTD/svg10.dtd">
<svg version="1.0" xmlns="http://www.w3.org/2000/svg" width="500.000000pt" height="500.000000pt"
    viewBox="0 0 500.000000 500.000000" preserveAspectRatio="xMidYMid meet">

    <g transform="translate(0.000000,500.000000) scale(0.100000,-0.100000)" fill="#000000" stroke="none">
        <path d="M1782 3800 c-397 -141 -724 -259 -727 -261 -3 -4 214 -1911 218
-1916 1 0 279 -154 617 -342 l614 -340 31 18 c16 10 289 162 605 336 316 175
579 321 583 325 11 10 229 1912 220 1921 -4 4 -280 104 -613 222 -333 119
-655 234 -716 255 l-110 40 -722 -258z m1165 -1088 c243 -548 445 -1005 449
-1014 6 -17 -6 -18 -163 -18 l-169 0 -90 225 -89 225 -385 0 -386 0 -89 -222
-90 -223 -172 -3 -172 -2 22 49 c12 27 216 484 452 1015 237 531 432 965 435
965 3 0 204 -448 447 -997z" />
        <path d="M2370 2738 c-69 -165 -126 -305 -128 -309 -2 -5 114 -9 258 -9 144 0
260 4 258 9 -42 108 -254 611 -258 611 -3 0 -61 -136 -130 -302z" />
    </g>
</svg>